<svg id="svg" version="1.1" xmlns="http://www.w3.org/2000/svg" xmlns:xlink="http://www.w3.org/1999/xlink" width="400" height="400" viewBox="0, 0, 400,400"><g id="svgg"><path id="path0" d="M196.200 9.200 C 196.064 9.420,195.153 9.600,194.176 9.600 C 193.199 9.600,192.400 9.780,192.400 10.000 C 192.400 10.220,191.860 10.400,191.200 10.400 C 190.540 10.400,190.000 10.580,190.000 10.800 C 190.000 11.020,189.735 11.200,189.412 11.200 C 188.881 11.200,188.001 11.629,185.182 13.262 C 182.827 14.627,176.800 20.534,176.800 21.478 C 176.800 21.765,176.620 22.000,176.400 22.000 C 176.180 22.000,176.000 22.255,176.000 22.567 C 176.000 22.878,175.858 23.193,175.685 23.267 C 175.512 23.340,174.857 24.480,174.230 25.800 C 173.602 27.120,170.594 33.250,167.545 39.423 C 164.495 45.596,162.000 50.861,162.000 51.123 C 162.000 51.385,161.820 51.600,161.600 51.600 C 161.380 51.600,161.200 51.960,161.200 52.400 C 161.200 52.840,161.020 53.200,160.800 53.200 C 160.580 53.200,160.400 53.560,160.400 54.000 C 160.400 54.440,160.220 54.800,160.000 54.800 C 159.780 54.800,159.600 55.160,159.600 55.600 C 159.600 56.040,159.420 56.400,159.200 56.400 C 158.980 56.400,158.800 56.760,158.800 57.200 C 158.800 57.640,158.620 58.000,158.400 58.000 C 158.180 58.000,158.000 58.360,158.000 58.800 C 158.000 59.240,157.820 59.600,157.600 59.600 C 157.380 59.600,157.200 59.960,157.200 60.400 C 157.200 60.840,157.020 61.200,156.800 61.200 C 156.580 61.200,156.400 61.440,156.400 61.734 C 156.400 62.028,154.870 65.303,153.000 69.012 C 151.130 72.720,149.600 75.990,149.600 76.277 C 149.600 76.565,149.420 76.800,149.200 76.800 C 148.980 76.800,148.800 77.160,148.800 77.600 C 148.800 78.040,148.620 78.400,148.400 78.400 C 148.180 78.400,148.000 78.760,148.000 79.200 C 148.000 79.640,147.820 80.000,147.600 80.000 C 147.380 80.000,147.200 80.360,147.200 80.800 C 147.200 81.240,147.020 81.600,146.800 81.600 C 146.580 81.600,146.400 81.960,146.400 82.400 C 146.400 82.840,146.220 83.200,146.000 83.200 C 145.780 83.200,145.600 83.545,145.600 83.967 C 145.600 84.388,145.463 84.793,145.295 84.867 C 144.976 85.006,144.063 86.827,135.852 103.690 C 128.536 118.715,128.272 118.929,114.800 120.755 C 113.150 120.979,110.540 121.344,109.000 121.567 C 97.086 123.294,92.063 123.952,88.500 124.256 C 87.125 124.373,86.000 124.633,86.000 124.834 C 86.000 125.035,84.841 125.200,83.424 125.200 C 82.007 125.200,80.736 125.380,80.600 125.600 C 80.464 125.820,79.204 126.000,77.800 126.000 C 76.396 126.000,75.136 126.180,75.000 126.400 C 74.864 126.620,73.604 126.800,72.200 126.800 C 70.796 126.800,69.536 126.980,69.400 127.200 C 69.264 127.420,68.094 127.600,66.800 127.600 C 65.506 127.600,64.336 127.780,64.200 128.000 C 64.064 128.220,62.804 128.400,61.400 128.400 C 59.996 128.400,58.736 128.580,58.600 128.800 C 58.464 129.020,57.294 129.200,56.000 129.200 C 54.706 129.200,53.536 129.380,53.400 129.600 C 53.264 129.820,52.004 130.000,50.600 130.000 C 49.196 130.000,47.936 130.180,47.800 130.400 C 47.664 130.620,46.519 130.800,45.256 130.800 C 43.993 130.800,42.789 130.965,42.580 131.166 C 42.371 131.368,41.120 131.634,39.800 131.758 C 38.480 131.882,36.320 132.086,35.000 132.210 C 33.680 132.334,32.240 132.600,31.800 132.801 C 31.360 133.002,29.920 133.257,28.600 133.368 C 24.412 133.719,22.211 134.067,21.820 134.439 C 21.611 134.637,21.079 134.800,20.638 134.800 C 14.788 134.800,2.000 147.627,2.000 153.495 C 2.000 153.967,1.845 154.448,1.657 154.565 C 1.468 154.682,1.213 155.883,1.090 157.235 C 0.968 158.587,0.672 159.888,0.434 160.126 C -0.127 160.687,-0.130 163.090,0.430 163.277 C 0.666 163.355,0.962 164.545,1.086 165.921 C 1.211 167.297,1.468 168.518,1.657 168.635 C 1.845 168.752,2.000 169.191,2.000 169.612 C 2.000 173.785,6.911 179.746,23.038 195.149 C 25.657 197.650,32.497 204.310,38.239 209.949 C 43.980 215.587,51.180 222.607,54.239 225.550 C 75.869 246.357,82.400 253.217,82.400 255.132 C 82.400 255.521,82.594 256.034,82.832 256.272 C 83.474 256.914,82.713 266.995,81.963 267.780 C 81.763 267.989,81.600 269.103,81.600 270.256 C 81.600 271.409,81.420 272.464,81.200 272.600 C 80.980 272.736,80.800 273.726,80.800 274.800 C 80.800 275.874,80.620 276.864,80.400 277.000 C 80.180 277.136,80.000 278.216,80.000 279.400 C 80.000 280.584,79.820 281.664,79.600 281.800 C 79.380 281.936,79.200 282.926,79.200 284.000 C 79.200 285.074,79.020 286.064,78.800 286.200 C 78.580 286.336,78.400 287.427,78.400 288.624 C 78.400 289.821,78.220 290.800,78.000 290.800 C 77.780 290.800,77.600 291.779,77.600 292.976 C 77.600 294.173,77.420 295.264,77.200 295.400 C 76.980 295.536,76.800 296.627,76.800 297.824 C 76.800 299.021,76.620 300.000,76.400 300.000 C 76.180 300.000,76.000 300.954,76.000 302.120 C 76.000 303.286,75.837 304.411,75.637 304.620 C 75.437 304.829,75.175 305.900,75.054 307.000 C 74.934 308.100,74.655 310.080,74.434 311.400 C 74.214 312.720,73.857 314.880,73.642 316.200 C 73.164 319.130,72.089 325.744,71.561 329.000 C 71.347 330.320,70.981 332.480,70.749 333.800 C 70.315 336.260,69.857 338.922,69.200 342.800 C 68.995 344.010,68.635 346.080,68.400 347.400 C 68.165 348.720,67.799 350.835,67.586 352.100 C 67.374 353.365,67.000 355.525,66.755 356.900 C 65.987 361.223,66.283 369.566,67.241 370.580 C 67.438 370.789,67.600 371.286,67.600 371.685 C 67.600 372.084,67.759 372.723,67.953 373.105 C 68.148 373.487,68.551 374.340,68.850 375.000 C 70.341 378.291,74.080 382.895,76.800 384.787 C 77.570 385.323,78.290 385.860,78.400 385.981 C 78.672 386.279,80.271 387.179,82.200 388.120 C 83.080 388.549,84.113 389.058,84.495 389.250 C 84.877 389.443,85.541 389.600,85.971 389.600 C 86.401 389.600,86.864 389.780,87.000 390.000 C 87.136 390.220,88.126 390.400,89.200 390.400 C 90.274 390.400,91.264 390.580,91.400 390.800 C 91.722 391.321,96.678 391.321,97.000 390.800 C 97.136 390.580,98.126 390.400,99.200 390.400 C 100.274 390.400,101.264 390.220,101.400 390.000 C 101.536 389.780,101.999 389.600,102.429 389.600 C 102.859 389.600,103.568 389.420,104.005 389.200 C 104.442 388.980,105.158 388.620,105.595 388.400 C 106.032 388.180,106.662 388.000,106.995 388.000 C 107.328 388.000,107.601 387.865,107.603 387.700 C 107.605 387.535,108.010 387.208,108.503 386.973 C 108.996 386.738,110.840 385.771,112.600 384.825 C 116.650 382.647,126.190 377.678,131.400 375.033 C 133.600 373.916,135.460 372.867,135.533 372.701 C 135.607 372.536,136.012 372.400,136.433 372.400 C 136.855 372.400,137.200 372.220,137.200 372.000 C 137.200 371.780,137.560 371.600,138.000 371.600 C 138.440 371.600,138.801 371.465,138.803 371.300 C 138.805 371.135,139.210 370.806,139.703 370.568 C 140.196 370.330,142.400 369.181,144.600 368.015 C 146.800 366.848,150.850 364.730,153.600 363.308 C 156.350 361.887,158.771 360.560,158.980 360.362 C 159.189 360.163,159.669 360.000,160.047 360.000 C 160.424 360.000,160.793 359.864,160.867 359.698 C 160.940 359.532,162.260 358.768,163.800 358.000 C 165.340 357.232,166.660 356.468,166.733 356.302 C 166.807 356.136,167.197 356.000,167.600 356.000 C 168.003 356.000,168.393 355.865,168.467 355.700 C 168.594 355.413,170.972 354.099,176.200 351.427 C 177.520 350.752,178.660 350.065,178.733 349.900 C 178.807 349.735,179.197 349.600,179.600 349.600 C 180.003 349.600,180.393 349.465,180.467 349.300 C 180.540 349.135,182.670 347.943,185.200 346.651 C 187.730 345.359,189.971 344.144,190.180 343.951 C 190.389 343.758,190.884 343.600,191.280 343.600 C 191.676 343.600,192.000 343.420,192.000 343.200 C 192.000 342.980,192.360 342.800,192.800 342.800 C 193.240 342.800,193.600 342.620,193.600 342.400 C 193.600 342.180,193.960 342.000,194.400 342.000 C 194.840 342.000,195.200 341.837,195.200 341.639 C 195.200 341.327,198.191 340.811,200.000 340.811 C 201.809 340.811,204.800 341.327,204.800 341.639 C 204.800 341.837,205.160 342.000,205.600 342.000 C 206.040 342.000,206.400 342.180,206.400 342.400 C 206.400 342.620,206.760 342.800,207.200 342.800 C 207.640 342.800,208.000 342.980,208.000 343.200 C 208.000 343.420,208.265 343.600,208.588 343.600 C 208.911 343.600,209.766 343.931,210.488 344.335 C 211.210 344.739,213.870 346.134,216.400 347.435 C 218.930 348.736,221.060 349.935,221.133 350.100 C 221.207 350.265,221.597 350.400,222.000 350.400 C 222.403 350.400,222.793 350.535,222.867 350.700 C 222.940 350.865,224.125 351.585,225.500 352.300 C 226.875 353.015,229.125 354.185,230.500 354.900 C 231.875 355.615,233.060 356.335,233.133 356.500 C 233.207 356.665,233.597 356.800,234.000 356.800 C 234.403 356.800,234.793 356.935,234.867 357.100 C 234.940 357.265,237.070 358.460,239.600 359.756 C 242.130 361.052,246.180 363.145,248.600 364.406 C 252.538 366.459,254.408 367.446,260.800 370.843 C 261.790 371.369,262.660 371.935,262.733 372.100 C 262.807 372.265,263.212 372.400,263.633 372.400 C 264.055 372.400,264.400 372.580,264.400 372.800 C 264.400 373.020,264.745 373.200,265.167 373.200 C 265.588 373.200,265.993 373.335,266.067 373.500 C 266.140 373.665,268.270 374.860,270.800 376.156 C 277.768 379.726,283.845 382.896,287.400 384.817 C 289.160 385.768,291.004 386.738,291.497 386.973 C 291.990 387.208,292.395 387.535,292.397 387.700 C 292.399 387.865,292.672 388.000,293.005 388.000 C 293.338 388.000,293.968 388.180,294.405 388.400 C 294.842 388.620,295.558 388.980,295.995 389.200 C 296.432 389.420,297.141 389.600,297.571 389.600 C 298.001 389.600,298.464 389.780,298.600 390.000 C 298.736 390.220,299.546 390.400,300.400 390.400 C 301.254 390.400,302.064 390.580,302.200 390.800 C 302.336 391.020,303.956 391.200,305.800 391.200 C 307.644 391.200,309.264 391.020,309.400 390.800 C 309.536 390.580,310.447 390.400,311.424 390.400 C 312.401 390.400,313.200 390.220,313.200 390.000 C 313.200 389.780,313.740 389.600,314.400 389.600 C 315.060 389.600,315.600 389.420,315.600 389.200 C 315.600 388.980,316.050 388.800,316.600 388.800 C 317.150 388.800,317.600 388.662,317.600 388.494 C 317.600 388.326,318.296 387.887,319.147 387.518 C 319.999 387.150,320.944 386.606,321.247 386.311 C 321.551 386.015,322.430 385.333,323.200 384.793 C 325.926 382.885,329.777 378.150,331.165 375.000 C 331.455 374.340,331.852 373.487,332.047 373.105 C 332.241 372.723,332.400 372.084,332.400 371.685 C 332.400 371.286,332.562 370.789,332.759 370.580 C 333.717 369.566,334.013 361.223,333.245 356.900 C 333.000 355.525,332.626 353.365,332.414 352.100 C 332.201 350.835,331.835 348.720,331.600 347.400 C 331.365 346.080,331.005 344.010,330.800 342.800 C 330.193 339.220,329.702 336.359,329.237 333.700 C 328.804 331.223,328.659 330.349,327.399 322.600 C 326.265 315.622,325.976 313.859,325.566 311.400 C 325.345 310.080,325.066 308.100,324.946 307.000 C 324.825 305.900,324.563 304.829,324.363 304.620 C 324.163 304.411,324.000 303.286,324.000 302.120 C 324.000 300.954,323.820 300.000,323.600 300.000 C 323.380 300.000,323.200 299.021,323.200 297.824 C 323.200 296.627,323.020 295.536,322.800 295.400 C 322.580 295.264,322.400 294.173,322.400 292.976 C 322.400 291.779,322.220 290.800,322.000 290.800 C 321.780 290.800,321.600 289.821,321.600 288.624 C 321.600 287.427,321.420 286.336,321.200 286.200 C 320.980 286.064,320.800 285.074,320.800 284.000 C 320.800 282.926,320.620 281.936,320.400 281.800 C 320.180 281.664,320.000 280.584,320.000 279.400 C 320.000 278.216,319.820 277.136,319.600 277.000 C 319.380 276.864,319.200 275.874,319.200 274.800 C 319.200 273.726,319.020 272.736,318.800 272.600 C 318.580 272.464,318.400 271.384,318.400 270.200 C 318.400 269.016,318.220 267.936,318.000 267.800 C 317.780 267.664,317.600 266.674,317.600 265.600 C 317.600 264.526,317.420 263.536,317.200 263.400 C 316.980 263.264,316.800 261.644,316.800 259.800 C 316.800 257.956,316.980 256.336,317.200 256.200 C 317.420 256.064,317.600 255.609,317.600 255.189 C 317.600 253.203,323.308 247.185,344.955 226.347 C 348.010 223.406,355.390 216.209,361.355 210.353 C 367.320 204.498,374.345 197.658,376.966 195.153 C 391.100 181.649,394.815 177.530,396.582 173.400 C 396.959 172.520,397.432 171.487,397.634 171.105 C 397.835 170.723,398.000 170.059,398.000 169.629 C 398.000 169.199,398.155 168.751,398.344 168.634 C 398.534 168.517,398.784 167.230,398.901 165.774 C 399.018 164.318,399.313 162.927,399.557 162.683 C 400.128 162.112,400.131 160.510,399.561 160.320 C 399.319 160.240,399.024 158.960,398.905 157.476 C 398.786 155.992,398.534 154.683,398.344 154.566 C 398.155 154.449,398.000 153.967,398.000 153.495 C 398.000 147.627,385.212 134.800,379.362 134.800 C 378.921 134.800,378.389 134.637,378.180 134.439 C 377.804 134.081,375.861 133.765,371.600 133.369 C 370.390 133.256,369.040 133.000,368.600 132.800 C 368.160 132.600,366.720 132.335,365.400 132.212 C 359.345 131.648,358.551 131.542,357.800 131.200 C 357.360 131.000,355.920 130.734,354.600 130.610 C 353.280 130.486,351.120 130.282,349.800 130.158 C 348.480 130.034,347.229 129.768,347.020 129.566 C 346.811 129.365,345.517 129.200,344.144 129.200 C 342.771 129.200,341.536 129.020,341.400 128.800 C 341.264 128.580,340.094 128.400,338.800 128.400 C 337.506 128.400,336.336 128.220,336.200 128.000 C 336.064 127.780,334.894 127.600,333.600 127.600 C 332.306 127.600,331.136 127.420,331.000 127.200 C 330.864 126.980,329.604 126.800,328.200 126.800 C 326.796 126.800,325.536 126.620,325.400 126.400 C 325.264 126.180,324.029 126.000,322.656 126.000 C 321.283 126.000,319.989 125.835,319.780 125.634 C 319.571 125.432,318.320 125.171,317.000 125.052 C 315.680 124.934,313.430 124.662,312.000 124.447 C 310.570 124.232,308.050 123.880,306.400 123.665 C 300.835 122.939,293.817 121.968,291.200 121.562 C 286.657 120.857,283.067 120.366,280.800 120.141 C 272.838 119.349,270.822 117.383,264.358 104.112 C 255.736 86.407,254.230 83.402,253.912 83.267 C 253.741 83.193,253.600 82.788,253.600 82.367 C 253.600 81.945,253.420 81.600,253.200 81.600 C 252.980 81.600,252.800 81.240,252.800 80.800 C 252.800 80.360,252.620 80.000,252.400 80.000 C 252.180 80.000,252.000 79.640,252.000 79.200 C 252.000 78.760,251.820 78.400,251.600 78.400 C 251.380 78.400,251.200 78.040,251.200 77.600 C 251.200 77.160,251.020 76.800,250.800 76.800 C 250.580 76.800,250.400 76.565,250.400 76.277 C 250.400 75.990,248.870 72.720,247.000 69.012 C 245.130 65.303,243.600 62.028,243.600 61.734 C 243.600 61.440,243.420 61.200,243.200 61.200 C 242.980 61.200,242.800 60.840,242.800 60.400 C 242.800 59.960,242.620 59.600,242.400 59.600 C 242.180 59.600,242.000 59.240,242.000 58.800 C 242.000 58.360,241.820 58.000,241.600 58.000 C 241.380 58.000,241.200 57.640,241.200 57.200 C 241.200 56.760,241.020 56.400,240.800 56.400 C 240.580 56.400,240.400 56.040,240.400 55.600 C 240.400 55.160,240.220 54.800,240.000 54.800 C 239.780 54.800,239.600 54.584,239.600 54.319 C 239.600 54.055,236.831 48.250,233.447 41.419 C 230.062 34.589,226.533 27.425,225.605 25.500 C 224.676 23.575,223.755 22.000,223.558 22.000 C 223.361 22.000,223.200 21.765,223.200 21.478 C 223.200 20.534,217.173 14.627,214.818 13.262 C 211.999 11.629,211.119 11.200,210.588 11.200 C 210.265 11.200,210.000 11.020,210.000 10.800 C 210.000 10.580,209.460 10.400,208.800 10.400 C 208.140 10.400,207.600 10.220,207.600 10.000 C 207.600 9.780,206.801 9.600,205.824 9.600 C 204.847 9.600,203.936 9.420,203.800 9.200 C 203.664 8.980,201.954 8.800,200.000 8.800 C 198.046 8.800,196.336 8.980,196.200 9.200 " stroke="none" fill="#000000" fill-rule="evenodd"></path><path id="path1" d="" stroke="none" fill="#080404" fill-rule="evenodd"></path><path id="path2" d="" stroke="none" fill="#080404" fill-rule="evenodd"></path><path id="path3" d="" stroke="none" fill="#080404" fill-rule="evenodd"></path><path id="path4" d="" stroke="none" fill="#080404" fill-rule="evenodd"></path></g></svg>